HIERARCHY
ROOT Pelvis
{
	OFFSET 0.000000 0.000000 0.000000
	CHANNELS 6 Xposition Yposition Zposition Xrotation Yrotation Zrotation
	JOINT LeftUpLeg_virtual
	{
		OFFSET 0.000000 0.000000 0.000000
		CHANNELS 3 Xrotation Yrotation Zrotation
		JOINT LeftUpLeg
		{
			OFFSET 18.735201 -5.666702 -4.541200
			CHANNELS 3 Xrotation Yrotation Zrotation
			JOINT LeftLeg
			{
				OFFSET -0.021200 -31.938179 0.493100
				CHANNELS 3 Xrotation Yrotation Zrotation
				JOINT LeftFoot
				{
					OFFSET 0.021200 -31.938179 -4.336299
					CHANNELS 3 Xrotation Yrotation Zrotation
					JOINT LeftToeBase
					{
						OFFSET 0.943001 -26.722000 15.023500
						CHANNELS 3 Xrotation Yrotation Zrotation
						End Site
						{
							OFFSET 0 0 0
						}
					}
				}
			}
		}
	}
	JOINT RightUpLeg_virtual
	{
		OFFSET 0.000000 0.000000 0.000000
		CHANNELS 3 Xrotation Yrotation Zrotation
		JOINT RightUpLeg
		{
			OFFSET -18.735201 -5.666702 -4.541200
			CHANNELS 3 Xrotation Yrotation Zrotation
			JOINT RightLeg
			{
				OFFSET 0.018946 -31.938133 0.493100
				CHANNELS 3 Xrotation Yrotation Zrotation
				JOINT RightFoot
				{
					OFFSET -0.018946 -31.938126 -4.336299
					CHANNELS 3 Xrotation Yrotation Zrotation
					JOINT RightToeBase
					{
						OFFSET -0.943001 -26.722004 15.023500
						CHANNELS 3 Xrotation Yrotation Zrotation
						End Site
						{
							OFFSET 0 0 0
						}
					}
				}
			}
		}
	}
	JOINT Hips_virtual
	{
		OFFSET 0.000000 0.000000 0.000000
		CHANNELS 3 Xrotation Yrotation Zrotation
		JOINT Hips
		{
			OFFSET -0.000000 -0.000000 -0.000000
			CHANNELS 3 Xrotation Yrotation Zrotation
			JOINT Spine
			{
				OFFSET 0.000000 10.199997 -0.299500
				CHANNELS 3 Xrotation Yrotation Zrotation
				JOINT Spine1
				{
					OFFSET 0.000000 11.900002 -1.516600
					CHANNELS 3 Xrotation Yrotation Zrotation
					JOINT Spine2
					{
						OFFSET 0.000000 13.600006 -2.842500
						CHANNELS 3 Xrotation Yrotation Zrotation
						JOINT Neck_virtual
						{
							OFFSET 0.000000 0.000000 0.000000
							CHANNELS 3 Xrotation Yrotation Zrotation
							JOINT Neck
							{
								OFFSET 0.000000 9.624100 -2.890100
								CHANNELS 3 Xrotation Yrotation Zrotation
								JOINT Head
								{
									OFFSET 0.000000 14.068802 -1.351900
									CHANNELS 3 Xrotation Yrotation Zrotation
									End Site
									{
										OFFSET 0 0 0
									}
								}
							}
						}
						JOINT LeftShoulder_virtual
						{
							OFFSET 0.000000 0.000000 0.000000
							CHANNELS 3 Xrotation Yrotation Zrotation
							JOINT LeftShoulder
							{
								OFFSET 15.263000 10.923401 -0.547700
								CHANNELS 3 Xrotation Yrotation Zrotation
								JOINT LeftArm
								{
									OFFSET 25.438599 -2.830597 -13.032500
									CHANNELS 3 Xrotation Yrotation Zrotation
									JOINT LeftForeArm
									{
										OFFSET 29.960503 0.000000 0.000000
										CHANNELS 3 Xrotation Yrotation Zrotation
										JOINT LeftHand
										{
											OFFSET 27.849251 0.000000 0.000000
											CHANNELS 3 Xrotation Yrotation Zrotation
											End Site
											{
												OFFSET 0 0 0
											}
										}
									}
								}
							}
						}
						JOINT RightShoulder_virtual
						{
							OFFSET 0.000000 0.000000 0.000000
							CHANNELS 3 Xrotation Yrotation Zrotation
							JOINT RightShoulder
							{
								OFFSET -15.263000 10.923401 -0.547700
								CHANNELS 3 Xrotation Yrotation Zrotation
								JOINT RightArm
								{
									OFFSET -25.438599 -2.830597 -13.032500
									CHANNELS 3 Xrotation Yrotation Zrotation
									JOINT RightForeArm
									{
										OFFSET -29.960503 0.000000 0.000000
										CHANNELS 3 Xrotation Yrotation Zrotation
										JOINT RightHand
										{
											OFFSET -27.849251 0.000000 0.000000
											CHANNELS 3 Xrotation Yrotation Zrotation
											End Site
											{
												OFFSET 0 0 0
											}
										}
									}
								}
							}
						}
					}
				}
			}
		}
	}
}
MOTION
Frames: 6
Frame Time: 0.03333333
-0.113866 109.462936 2.749374 0.000000 0.000000 0.000000 -90.807365 -2.094816 1.697373 -10.377926 17.337913 19.703489 12.481921 1.205835 1.433476 21.968706 29.941924 -28.484793 0.000000 0.000000 0.000000 -90.807365 -2.094816 1.697373 -13.903265 -16.049864 -21.592936 14.288498 -5.354657 -4.610885 32.403493 -29.920644 33.605070 0.000000 0.000000 0.000000 -90.807365 -2.094816 1.697373 0.000000 0.000000 0.000000 0.698689 -0.116037 -0.848578 0.841701 0.154199 -0.463161 0.000000 0.000000 0.000000 0.831244 0.158014 -0.488484 -1.630410 1.534527 -3.394681 0.000000 0.000000 0.000000 0.831244 0.158014 -0.488484 0.834126 -6.730774 -3.480306 44.076580 -39.845845 -34.620914 0.000093 -83.340534 0.000103 0.000000 0.000000 0.000000 0.831244 0.158014 -0.488484 0.483607 4.500680 3.202686 -4.326317 2.268515 83.611508 -179.999964 50.428035 179.999950 0.000000 0.000000 0.000000 
-0.113188 109.463211 2.750984 0.000000 0.000000 0.000000 -90.809168 -2.094168 1.699709 -10.380083 17.336613 19.704660 12.490469 1.180098 1.433608 21.968627 29.940370 -28.483919 0.000000 0.000000 0.000000 -90.809168 -2.094168 1.699709 -13.906302 -16.053999 -21.594422 14.289284 -5.336011 -4.610609 32.403777 -29.920822 33.603332 0.000000 0.000000 0.000000 -90.809168 -2.094168 1.699709 0.000000 0.000000 0.000000 0.698675 -0.116022 -0.848553 0.841681 0.154199 -0.463160 0.000000 0.000000 0.000000 0.831234 0.158014 -0.488483 -1.644252 1.540295 -3.398483 0.000000 0.000000 0.000000 0.831234 0.158014 -0.488483 0.834871 -6.690143 -3.495206 44.105848 -39.875044 -34.542920 -0.000024 -83.340500 -0.000029 0.000000 0.000000 0.000000 0.831234 0.158014 -0.488483 0.485162 4.473281 3.202566 -4.337915 2.290710 83.617642 -179.999978 50.440028 179.999991 0.000000 0.000000 0.000000 
-0.110903 109.464516 2.752632 0.000000 0.000000 0.000000 -90.811839 -2.093094 1.701359 -10.386403 17.351436 19.703829 12.495241 1.152512 1.433932 21.960334 29.936753 -28.480156 0.000000 0.000000 0.000000 -90.811839 -2.093094 1.701359 -13.909661 -16.075199 -21.597243 14.293096 -5.318923 -4.609500 32.397384 -29.919101 33.597386 0.000000 0.000000 0.000000 -90.811839 -2.093094 1.701359 0.000000 0.000000 0.000000 0.698678 -0.116088 -0.848184 0.841705 0.154199 -0.463161 0.000000 0.000000 0.000000 0.835887 0.158013 -0.488483 -1.682899 1.554442 -3.402036 0.000000 0.000000 0.000000 0.835887 0.158013 -0.488483 0.835479 -6.617842 -3.528197 44.151446 -39.911169 -34.423040 0.000069 -83.340500 0.000085 0.000000 0.000000 0.000000 0.835887 0.158013 -0.488483 0.487200 4.436631 3.202407 -4.352115 2.322247 83.628816 -179.999991 50.456936 -179.999991 0.000000 0.000000 0.000000 
-0.107653 109.466492 2.754326 0.000000 0.000000 0.000000 -90.815022 -2.091723 1.702151 -10.393951 17.377678 19.701027 12.499282 1.123765 1.434443 21.943439 29.931979 -28.474026 0.000000 0.000000 0.000000 -90.815022 -2.091723 1.702151 -13.919389 -16.102338 -21.612059 14.308954 -5.285704 -4.608053 32.378932 -29.916754 33.587339 0.000000 0.000000 0.000000 -90.815022 -2.091723 1.702151 0.000000 0.000000 0.000000 0.698706 -0.116225 -0.847244 0.851512 0.154199 -0.463161 0.000000 0.000000 0.000000 0.847222 0.158014 -0.488483 -1.741838 1.574234 -3.400190 0.000000 0.000000 0.000000 0.847222 0.158014 -0.488483 0.836082 -6.520417 -3.575786 44.209216 -39.951911 -34.271311 0.000132 -83.340500 0.000114 0.000000 0.000000 0.000000 0.847222 0.158014 -0.488483 0.489733 4.391507 3.202213 -4.368897 2.362212 83.641561 -179.999978 50.478260 179.999978 0.000000 0.000000 0.000000 
-0.103055 109.469513 2.758209 0.000000 0.000000 0.000000 -90.816613 -2.085742 1.702583 -10.407601 17.409520 19.703928 12.508304 1.072583 1.435059 21.924636 29.925613 -28.476872 0.000000 0.000000 0.000000 -90.816613 -2.085742 1.702583 -13.942576 -16.135729 -21.630463 14.326856 -5.236329 -4.606665 32.361091 -29.912882 33.574365 0.000000 0.000000 0.000000 -90.816613 -2.085742 1.702583 0.000000 0.000000 0.000000 0.698682 -0.116316 -0.836492 0.863144 0.154199 -0.463161 0.000000 0.000000 0.000000 0.860532 0.158014 -0.488483 -1.816444 1.597297 -3.389994 0.000000 0.000000 0.000000 0.860532 0.158014 -0.488483 0.836775 -6.404468 -3.634537 44.275264 -39.994869 -34.097681 -0.000025 -83.340500 -0.000052 0.000000 0.000000 0.000000 0.860532 0.158014 -0.488483 0.492925 4.338947 3.198778 -4.387943 2.409575 83.656779 -179.999937 50.503436 179.999937 0.000000 0.000000 0.000000 
-0.097158 109.473068 2.763832 0.000000 0.000000 0.000000 -90.817672 -2.078985 1.702522 -10.429850 17.444172 19.714371 12.525717 1.004051 1.435844 21.902960 29.913374 -28.482545 0.000000 0.000000 0.000000 -90.817672 -2.078985 1.702522 -13.973402 -16.172331 -21.652900 14.360785 -5.188576 -4.605238 32.333576 -29.905703 33.555265 0.000000 0.000000 0.000000 -90.817672 -2.078985 1.702522 0.000000 0.000000 0.000000 0.698723 -0.116449 -0.824032 0.875986 0.154198 -0.463161 0.000000 0.000000 0.000000 0.874912 0.158014 -0.485780 -1.901921 1.622309 -3.374415 0.000000 0.000000 0.000000 0.874912 0.158014 -0.485780 0.837679 -6.276426 -3.700997 44.345461 -40.037862 -33.912087 -0.000000 -83.340500 -0.000028 0.000000 0.000000 0.000000 0.874912 0.158014 -0.485780 0.496802 4.279798 3.190821 -4.409490 2.463277 83.674277 -179.999950 50.532021 179.999964 0.000000 0.000000 0.000000 
